<?xml version="1.0" encoding="UTF-8"?>
<svg width="110px" height="110px" viewBox="0 0 110 110" version="1.1" xmlns="http://www.w3.org/2000/svg" xmlns:xlink="http://www.w3.org/1999/xlink">
    <!-- Generator: Sketch 58 (84663) - https://sketch.com -->
    <title>Group</title>
    <desc>Created with Sketch.</desc>
    <defs>
        <linearGradient x1="50%" y1="0%" x2="50%" y2="99.2451436%" id="linearGradient-1">
            <stop stop-color="#7747F8" offset="0%"></stop>
            <stop stop-color="#D85FFF" offset="100%"></stop>
        </linearGradient>
        <linearGradient x1="50%" y1="0%" x2="50%" y2="100%" id="linearGradient-2">
            <stop stop-color="#7747F8" offset="0%"></stop>
            <stop stop-color="#D85FFF" offset="99.2451436%"></stop>
        </linearGradient>
        <linearGradient x1="0%" y1="0%" x2="97.2444661%" y2="100%" id="linearGradient-3">
            <stop stop-color="#7747F8" offset="0%"></stop>
            <stop stop-color="#D85FFF" offset="100%"></stop>
        </linearGradient>
    </defs>
    <g id="Page-1" stroke="none" stroke-width="1" fill="none" fill-rule="evenodd">
        <g id="Group">
            <rect id="Rectangle" fill="#F6F5F5" x="0" y="0" width="110" height="110" rx="10"></rect>
            <g id="Group-2" transform="translate(91.000000, 10.000000)" fill="#D85FFF">
                <circle id="Oval-Copy" cx="4.5" cy="4.5" r="4.5"></circle>
            </g>
            <g id="007-calendar" transform="translate(25.000000, 25.000000)" fill-rule="nonzero">
                <circle id="Oval" fill="url(#linearGradient-1)" cx="34.5" cy="34.5" r="2.5"></circle>
                <path d="M48.1526765,34.0453883 L35.4468043,46.8287731 C35.1769565,47.1002859 34.9779265,47.4348055 34.8670713,47.8025786 L32.0999746,56.9881571 C31.8546585,57.8023453 32.0683844,58.6867744 32.6578374,59.2959571 C33.0995222,59.7522898 33.6992739,60 34.3145314,60 C34.5205044,60 34.7282131,59.9721136 34.932219,59.9151741 L44.2733256,57.3059915 C44.6577314,57.1985298 45.0081169,56.9929409 45.2904619,56.7087101 L57.9697196,43.9479611 C60.6767601,41.2182487 60.6767601,36.7769676 57.9697196,34.0472552 C55.2627947,31.3178928 50.858097,31.3178928 48.1526765,34.0453883 Z M42.4515061,52.9720553 L37.7520818,54.2846975 L39.1273565,49.7192696 L47.7005773,41.0937519 L50.9740436,44.3944928 L42.4515061,52.9720553 Z M54.6985676,40.64617 L54.2501713,41.0973689 L50.9771679,37.7970947 L51.4240599,37.3475294 C52.3264067,36.4375475 53.7946007,36.4375475 54.6969476,37.3475294 C55.599063,38.2573946 55.599063,39.7378216 54.6985676,40.64617 Z" id="Shape" fill="url(#linearGradient-2)"></path>
                <circle id="Oval" fill="url(#linearGradient-2)" cx="25.5" cy="44.5" r="2.5"></circle>
                <circle id="Oval" fill="url(#linearGradient-2)" cx="25.5" cy="34.5" r="2.5"></circle>
                <circle id="Oval" fill="url(#linearGradient-2)" cx="25.5" cy="24.5" r="2.5"></circle>
                <circle id="Oval" fill="url(#linearGradient-2)" cx="14.5" cy="34.5" r="2.5"></circle>
                <circle id="Oval" fill="url(#linearGradient-2)" cx="14.5" cy="44.5" r="2.5"></circle>
                <circle id="Oval" fill="url(#linearGradient-2)" cx="14.5" cy="24.5" r="2.5"></circle>
                <circle id="Oval" fill="url(#linearGradient-2)" cx="45.5" cy="24.5" r="2.5"></circle>
                <path d="M50.625,4.6875 L47.578125,4.6875 L47.578125,2.34375 C47.578125,1.04929688 46.5288281,0 45.234375,0 C43.9399219,0 42.890625,1.04929688 42.890625,2.34375 L42.890625,4.6875 L32.2265625,4.6875 L32.2265625,2.34375 C32.2265625,1.04929688 31.1772656,0 29.8828125,0 C28.5883594,0 27.5390625,1.04929688 27.5390625,2.34375 L27.5390625,4.6875 L16.9921875,4.6875 L16.9921875,2.34375 C16.9921875,1.04929688 15.9428906,0 14.6484375,0 C13.3539844,0 12.3046875,1.04929688 12.3046875,2.34375 L12.3046875,4.6875 L9.375,4.6875 C4.205625,4.6875 0,8.893125 0,14.0625 L0,50.625 C0,55.794375 4.205625,60 9.375,60 L23.671875,60 C24.9663281,60 26.015625,58.9507031 26.015625,57.65625 C26.015625,56.3617969 24.9663281,55.3125 23.671875,55.3125 L9.375,55.3125 C6.7903125,55.3125 4.6875,53.2096875 4.6875,50.625 L4.6875,14.0625 C4.6875,11.4778125 6.7903125,9.375 9.375,9.375 L12.3046875,9.375 L12.3046875,11.71875 C12.3046875,13.0132031 13.3539844,14.0625 14.6484375,14.0625 C15.9428906,14.0625 16.9921875,13.0132031 16.9921875,11.71875 L16.9921875,9.375 L27.5390625,9.375 L27.5390625,11.71875 C27.5390625,13.0132031 28.5883594,14.0625 29.8828125,14.0625 C31.1772656,14.0625 32.2265625,13.0132031 32.2265625,11.71875 L32.2265625,9.375 L42.890625,9.375 L42.890625,11.71875 C42.890625,13.0132031 43.9399219,14.0625 45.234375,14.0625 C46.5288281,14.0625 47.578125,13.0132031 47.578125,11.71875 L47.578125,9.375 L50.625,9.375 C53.2096875,9.375 55.3125,11.4778125 55.3125,14.0625 L55.3125,24.609375 C55.3125,25.9038281 56.3617969,26.953125 57.65625,26.953125 C58.9507031,26.953125 60,25.9038281 60,24.609375 L60,14.0625 C60,8.893125 55.7946094,4.6875 50.625,4.6875 Z" id="Path" fill="url(#linearGradient-3)"></path>
                <circle id="Oval" fill="url(#linearGradient-2)" cx="34.5" cy="24.5" r="2.5"></circle>
            </g>
        </g>
    </g>
</svg>