<?xml version="1.0" encoding="UTF-8"?>
<svg width="110px" height="110px" viewBox="0 0 110 110" version="1.1" xmlns="http://www.w3.org/2000/svg" xmlns:xlink="http://www.w3.org/1999/xlink">
    <!-- Generator: Sketch 58 (84663) - https://sketch.com -->
    <title>Group</title>
    <desc>Created with Sketch.</desc>
    <defs>
        <linearGradient x1="0%" y1="1.78571795%" x2="100%" y2="98.2142821%" id="linearGradient-1">
            <stop stop-color="#7747F8" offset="0%"></stop>
            <stop stop-color="#D85FFF" offset="100%"></stop>
        </linearGradient>
    </defs>
    <g id="Page-1" stroke="none" stroke-width="1" fill="none" fill-rule="evenodd">
        <g id="Group">
            <rect id="Rectangle" fill="#F6F5F5" x="0" y="0" width="110" height="110" rx="10"></rect>
            <g id="Group-2" transform="translate(91.000000, 10.000000)" fill="#D85FFF">
                <circle id="Oval-Copy" cx="4.5" cy="4.5" r="4.5"></circle>
            </g>
            <g id="012-customer-care" transform="translate(25.000000, 25.000000)" fill="url(#linearGradient-1)" fill-rule="nonzero">
                <path d="M53.7171094,44.8460156 C49.696875,42.1735547 44.1033984,40.8847266 38.9589844,39.5253516 L38.9589844,39.2354297 C41.1857813,37.8508594 43.0695703,35.9668359 44.4520313,33.7410937 L52.1923828,33.7410937 L52.1923828,27.0248437 L54.0234375,27.0248437 L54.0234375,14.1342187 L46.9921875,14.1342187 L46.9921875,9.82417969 C46.9921875,4.44667969 42.6533203,0.0718359375 37.3201172,0.0718359375 L25.2126563,0.0718359375 L25.2126563,3.35449219 L17.6034375,0.0718359375 L13.0078125,0.0718359375 C13.0078125,2.49210937 13.0079297,13.2894141 13.0079297,14.1342187 L5.9765625,14.1342187 L5.9765625,27.0248437 L13.1496094,27.0248437 C13.81875,32.1744141 16.8118359,36.6058594 21.0411328,39.2354297 L21.0411328,39.5253516 C10.7561719,42.2431641 0,44.4427734 0,57.2328516 L0,58.9906641 L60,58.9906641 L60,57.2328516 C60,51.7082812 57.9448828,47.6564062 53.7171094,44.8460156 Z M24.5566406,40.8982031 C27.9680859,42.0526172 31.8223828,42.1235156 35.4433594,40.8982031 L35.4433594,42.3999609 C35.4433594,45.3926953 33.0014063,47.8273828 30,47.8273828 C26.9985938,47.8273828 24.5566406,45.3926953 24.5566406,42.4003125 L24.5566406,40.8982031 Z M48.6767578,30.2254688 L46.1107031,30.2254688 C46.4567578,29.1985547 46.7068359,28.1282812 46.8502734,27.0248437 L48.6767578,27.0248437 L48.6767578,30.2254688 Z M50.5078125,23.5092187 L46.9921875,23.5092187 C46.9921875,22.7749219 46.9921875,18.3798047 46.9921875,17.6498437 L50.5078125,17.6498437 L50.5078125,23.5092187 Z M16.8773437,3.58746094 L28.7282812,8.7 L28.7282812,3.58746094 L37.32,3.58746094 C40.7146875,3.58746094 43.4764453,6.38519531 43.4764453,9.82417969 L43.4764453,14.1343359 L22.6798828,14.1343359 C19.2882422,14.1343359 16.5284766,11.3416406 16.5234375,7.906875 L16.5234375,7.68890625 L16.5234375,7.68890625 L16.5234375,3.58746094 L16.8773437,3.58746094 Z M9.4921875,17.6498437 L13.0078125,17.6498437 L13.0078125,23.5092187 L9.4921875,23.5092187 L9.4921875,17.6498437 Z M16.5234375,24.8322656 L16.5234375,15.4136719 C18.1972266,16.8098437 20.3430469,17.6499609 22.6798828,17.6499609 L43.4765625,17.6499609 L43.4765625,24.8319141 C43.4765625,26.7492187 43.0710938,28.5735938 42.3427734,30.2254688 L30.3955078,30.2254688 L30.3955078,33.7410938 L40.0823438,33.7410938 C37.6116797,36.5200781 34.0075781,38.2748438 30,38.2748438 C22.5690234,38.2748438 16.5234375,32.244375 16.5234375,24.8322656 L16.5234375,24.8322656 Z M3.60246094,55.4750391 C3.95917969,52.0538672 5.42671875,49.6367578 8.22914062,47.7737109 C11.6191406,45.5201953 16.8630469,44.2541016 21.0748828,43.1516016 C21.4589062,47.7322266 25.3136719,51.3430078 29.9998828,51.3430078 C34.6860937,51.3430078 38.5408594,47.7322266 38.9248828,43.1516016 C43.3789453,44.3204297 48.4436719,45.5621484 51.770625,47.7737109 C54.5730469,49.6366406 56.0407031,52.05375 56.3974219,55.4750391 L3.60246094,55.4750391 Z" id="Shape"></path>
            </g>
        </g>
    </g>
</svg>