<?xml version="1.0" encoding="UTF-8"?>
<svg width="110px" height="110px" viewBox="0 0 110 110" version="1.1" xmlns="http://www.w3.org/2000/svg" xmlns:xlink="http://www.w3.org/1999/xlink">
    <!-- Generator: Sketch 58 (84663) - https://sketch.com -->
    <title>Group</title>
    <desc>Created with Sketch.</desc>
    <defs>
        <linearGradient x1="-386.679688%" y1="-385.761719%" x2="164.882812%" y2="192.109375%" id="linearGradient-1">
            <stop stop-color="#7747F8" offset="0%"></stop>
            <stop stop-color="#D85FFF" offset="100%"></stop>
        </linearGradient>
        <linearGradient x1="0%" y1="0%" x2="100%" y2="100%" id="linearGradient-2">
            <stop stop-color="#7747F8" offset="0%"></stop>
            <stop stop-color="#D85FFF" offset="100%"></stop>
        </linearGradient>
    </defs>
    <g id="Page-1" stroke="none" stroke-width="1" fill="none" fill-rule="evenodd">
        <g id="Group">
            <rect id="Rectangle" fill="#F6F5F5" x="0" y="0" width="110" height="110" rx="10"></rect>
            <g id="Group-2" transform="translate(91.000000, 10.000000)" fill="#D85FFF">
                <circle id="Oval-Copy" cx="4.5" cy="4.5" r="4.5"></circle>
            </g>
            <g id="004-followers" transform="translate(25.000000, 25.000000)" fill-rule="nonzero">
                <polygon id="Path" fill="url(#linearGradient-1)" points="46.3333333 42 46.3333333 45.3333333 43 45.3333333 43 48.6666667 46.3333333 48.6666667 46.3333333 52 49.6666667 52 49.6666667 48.6666667 53 48.6666667 53 45.3333333 49.6666667 45.3333333 49.6666667 42"></polygon>
                <path d="M54.1176471,32.9943288 L54.1176471,20.8471133 L60,20.8471133 L60,17.1622642 L47.6188235,0 L38.828,12.6727671 C36.1510588,11.3993965 33.1576471,10.6853931 30,10.6853931 C18.6476471,10.6853931 9.41176471,19.9030931 9.41176471,31.2330971 C9.41176471,32.2678794 9.49082353,33.3032489 9.64447059,34.3214757 L0,47.6902815 L0,51.3751306 L5.88235294,51.3751306 L5.88235294,60 L18.8235294,60 L18.8235294,51.3751306 L24.7058824,51.3751306 L24.7058824,51.3736042 C26.4208235,51.8284717 28.1917647,52.0583711 30,52.0583711 C31.9857647,52.0583711 33.9367059,51.7783353 35.8182353,51.2256608 C37.3507059,56.2963644 42.0734118,60 47.6470588,60 C54.4584706,60 60,54.46938 60,47.6713776 C60,41.719471 55.752,36.7391772 50.1230588,35.591676 C50.3082353,34.7366567 50.4382353,33.8695436 50.5127059,32.9944462 L54.1176471,32.9944462 L54.1176471,32.9943288 Z M47.6754118,6.10677761 L55.7682353,17.3246498 L50.5883529,17.3246498 L50.5883529,29.4718653 L50.5118824,29.4718653 C49.9828235,23.2823098 46.6938824,17.8667569 41.8805882,14.4607695 L47.6754118,6.10677761 Z M30,14.2078567 C39.4062353,14.2078567 47.0588235,21.8453795 47.0588235,31.2330971 C47.0588235,32.6451353 46.886,34.0390915 46.5457647,35.3921872 C44.5474118,35.5692497 42.6845882,36.2229015 41.0721176,37.23878 C40.1257647,35.9151556 38.9387059,34.7711769 37.5676471,33.8731835 L36.4034118,33.1106875 C37.6363529,31.6537966 38.3817647,29.7732708 38.3817647,27.7214358 C38.3817647,23.1087698 34.6217647,19.3561719 30,19.3561719 C25.3782353,19.3561719 21.6182353,23.1087698 21.6182353,27.7214358 C21.6182353,29.7732708 22.3635294,31.6537966 23.5965882,33.1106875 L22.4322353,33.8731835 C20.604,35.0705863 19.1301176,36.6713111 18.1034118,38.5383342 L12.9429412,31.3850327 C12.9424706,31.3344266 12.9411765,31.2838205 12.9411765,31.2332145 C12.9411765,21.8453795 20.5937647,14.2078567 30,14.2078567 L30,14.2078567 Z M25.1477647,27.7213183 C25.1477647,25.0510562 27.3244706,22.8785181 30.0001176,22.8785181 C32.6757647,22.8785181 34.8524706,25.0510562 34.8524706,27.7213183 C34.8524706,30.3915805 32.6757647,32.5640012 30.0001176,32.5640012 C27.3244706,32.5640012 25.1477647,30.3915805 25.1477647,27.7213183 L25.1477647,27.7213183 Z M15.2941176,47.8526671 L15.2941176,56.4774191 L9.41176471,56.4774191 L9.41176471,47.8526671 L4.232,47.8526671 L12.3530588,36.5956955 L20.4741176,47.8526671 L15.2941176,47.8526671 Z M30,48.5357902 C28.1794118,48.5357902 26.4055294,48.2552847 24.7058824,47.7009663 L24.7058824,47.6902815 L20.4930588,41.8507415 C21.1757647,39.7881042 22.5271765,38.0242893 24.3685882,36.8181978 L26.5929412,35.3614243 C27.6347059,35.8260373 28.7870588,36.0865822 30,36.0865822 C31.2129412,36.0865822 32.3651765,35.8260373 33.4070588,35.3614243 L35.6312941,36.8181978 C36.722,37.532436 37.654,38.4590788 38.3735294,39.5362481 C36.4578824,41.7086688 35.2941176,44.556698 35.2941176,47.6713776 C35.2941176,47.6810057 35.2944706,47.6905164 35.2944706,47.7001444 C33.5916471,48.2545802 31.8141176,48.5357902 30,48.5357902 L30,48.5357902 Z M56.4705882,47.6712602 C56.4705882,52.5269762 52.5123529,56.4774191 47.6470588,56.4774191 C42.7817647,56.4774191 38.8235294,52.5269762 38.8235294,47.6712602 C38.8235294,42.8155442 42.7817647,38.8651014 47.6470588,38.8651014 C52.5123529,38.8651014 56.4705882,42.8154268 56.4705882,47.6712602 Z" id="Shape" fill="url(#linearGradient-2)"></path>
            </g>
        </g>
    </g>
</svg>