<?xml version="1.0" encoding="UTF-8"?>
<svg width="110px" height="110px" viewBox="0 0 110 110" version="1.1" xmlns="http://www.w3.org/2000/svg" xmlns:xlink="http://www.w3.org/1999/xlink">
    <!-- Generator: Sketch 58 (84663) - https://sketch.com -->
    <title>Group</title>
    <desc>Created with Sketch.</desc>
    <defs>
        <linearGradient x1="0%" y1="11.0726644%" x2="100%" y2="88.9273356%" id="linearGradient-1">
            <stop stop-color="#7747F8" offset="0%"></stop>
            <stop stop-color="#D85FFF" offset="100%"></stop>
        </linearGradient>
        <linearGradient x1="0%" y1="10.4938272%" x2="100%" y2="89.5061728%" id="linearGradient-2">
            <stop stop-color="#7747F8" offset="0%"></stop>
            <stop stop-color="#D85FFF" offset="100%"></stop>
        </linearGradient>
    </defs>
    <g id="Page-1" stroke="none" stroke-width="1" fill="none" fill-rule="evenodd">
        <g id="Group">
            <rect id="Rectangle" fill="#F6F5F5" x="0" y="0" width="110" height="110" rx="10"></rect>
            <g id="Group-2" transform="translate(91.000000, 10.000000)" fill="#D85FFF">
                <circle id="Oval-Copy" cx="4.5" cy="4.5" r="4.5"></circle>
            </g>
            <g id="006-hashtag" transform="translate(21.000000, 25.000000)" fill-rule="nonzero">
                <path d="M34,0 C15.6673594,0 0,13.0255941 0,29.9999864 C0,46.5419788 15.2523203,60 34,60 C39.0002578,60 43.8400781,59.0351732 48.3966094,57.1310407 L61.4714687,59.9551727 C62.2234531,60.1175727 62.9974844,59.8306395 63.4649844,59.2254397 C63.9343437,58.6175734 64.0150937,57.7934404 63.6724375,57.105574 L59.8086562,49.3475776 C65.1024297,43.8679801 68,37.0505165 68,29.9999864 C68,13.4578605 52.7476797,0 34,0 L34,0 Z M56.0136719,47.4875784 C55.3737813,48.0930448 55.2048438,49.0479777 55.5981016,49.8375773 L58.2530234,55.1685083 L48.6162813,53.0869092 C48.2080156,52.9987759 47.78275,53.0415759 47.3999844,53.2093091 C43.1760156,55.0610416 38.6675625,55.9999745 34,55.9999745 C17.4493047,55.9999745 3.984375,44.3363798 3.984375,29.9999864 C3.984375,15.1781264 17.9460234,3.99999818 34,3.99999818 C50.5506953,3.99999818 64.015625,15.6635929 64.015625,29.9999864 C64.015625,36.3951835 61.1738359,42.6058473 56.0136719,47.4875784 Z" id="Shape" fill="url(#linearGradient-1)"></path>
                <path d="M50,26.0000708 C51.1045333,26.0000708 52,25.104636 52,24.000142 C52,22.895648 51.1045333,22.0002132 50,22.0002132 L46.3657333,22.0002132 L47.9230667,16.5498739 C48.2265333,15.4877783 47.6114667,14.3808844 46.5494667,14.0774285 C45.4876,13.774106 44.3802667,14.3888841 44.0769333,15.4509796 L42.2056,22.0002132 L30.3657333,22.0002132 L31.9230667,16.5498739 C32.2265333,15.4877783 31.6114667,14.3808844 30.5494667,14.0774285 C29.4876,13.774106 28.3804,14.3888841 28.0769333,15.4509796 L26.2056,22.0002132 L18,22.0002132 C16.8954667,22.0002132 16,22.895648 16,24.000142 C16,25.104636 16.8954667,26.0000708 18,26.0000708 L25.0628,26.0000708 L22.7770667,33.999786 L18,33.999786 C16.8954667,33.999786 16,34.8952208 16,35.9997148 C16,37.1042088 16.8954667,37.9996436 18,37.9996436 L21.6342667,37.9996436 L20.0769333,43.449983 C19.7734667,44.5120785 20.3885333,45.6189724 21.4505333,45.9224283 C22.5184,46.2273508 23.6213333,45.6052396 23.9230667,44.5488772 L25.7944,37.9996436 L37.6342667,37.9996436 L36.0769333,43.449983 C35.7734667,44.5120785 36.3885333,45.6189724 37.4505333,45.9224283 C38.5184,46.2273508 39.6213333,45.6052396 39.9230667,44.5488772 L41.7944,37.9996436 L50,37.9996436 C51.1045333,37.9996436 52,37.1042088 52,35.9997148 C52,34.8952208 51.1045333,33.999786 50,33.999786 L42.9372,33.999786 L45.2229333,26.0000708 L50,26.0000708 Z M38.7770667,33.999786 L26.9370667,33.999786 L29.2228,26.0000708 L41.0628,26.0000708 L38.7770667,33.999786 Z" id="Shape" fill="url(#linearGradient-2)"></path>
            </g>
        </g>
    </g>
</svg>