<?xml version="1.0" encoding="UTF-8"?>
<svg width="110px" height="110px" viewBox="0 0 110 110" version="1.1" xmlns="http://www.w3.org/2000/svg" xmlns:xlink="http://www.w3.org/1999/xlink">
    <!-- Generator: Sketch 58 (84663) - https://sketch.com -->
    <title>Group</title>
    <desc>Created with Sketch.</desc>
    <defs>
        <linearGradient x1="0%" y1="0%" x2="104.427083%" y2="100%" id="linearGradient-1">
            <stop stop-color="#6435E3" offset="0%"></stop>
            <stop stop-color="#DF4AFF" offset="100%"></stop>
        </linearGradient>
        <linearGradient x1="0%" y1="49.0487515%" x2="104.427083%" y2="50.9512485%" id="linearGradient-2">
            <stop stop-color="#6435E3" offset="0%"></stop>
            <stop stop-color="#DF4AFF" offset="100%"></stop>
        </linearGradient>
        <linearGradient x1="0%" y1="48.3471074%" x2="104.427083%" y2="51.6528926%" id="linearGradient-3">
            <stop stop-color="#6435E3" offset="0%"></stop>
            <stop stop-color="#DF4AFF" offset="100%"></stop>
        </linearGradient>
    </defs>
    <g id="Page-1" stroke="none" stroke-width="1" fill="none" fill-rule="evenodd">
        <g id="Group" transform="translate(-112.000000, -106.000000)">
            <rect id="Rectangle" fill="#F6F5F5" x="112" y="106" width="110" height="110" rx="10"></rect>
            <g id="Group-2" transform="translate(203.000000, 116.000000)" fill="#D85FFF">
                <circle id="Oval-Copy" cx="4.5" cy="4.5" r="4.5"></circle>
            </g>
            <g id="008-search" transform="translate(137.000000, 131.000000)" fill-rule="nonzero">
                <path d="M19.1638673,43.3882161 L24.4750716,38.0242604 C28.2403927,41.2380812 33.1206382,43.181654 38.4468535,43.1817751 C50.3311483,43.1815329 60,33.510648 60,21.6238818 C60,9.7371156 50.3312693,0.0664728045 38.4468535,0.0664728045 C31.750286,0.0664728045 25.7574162,3.13717735 21.80119,7.94465039 L17.4897859,3.63239369 L22.1851791,3.63239369 L22.1851791,0 L11.2901527,0 L11.2900317,10.8971811 L14.9217071,10.8971811 L14.9218282,6.20085926 L19.7061975,10.9862958 C15.3795404,18.581631 15.9897829,28.3614877 21.9188563,35.4436868 L16.5957885,40.8195084 L13.4834426,37.7064259 L0,51.1928983 L8.80536035,60 L22.2886819,46.5137698 L19.1638673,43.3882161 Z M22.3895214,13.6702715 L25.9156362,17.1970836 C25.4212441,18.6002773 25.1632741,20.0922224 25.1632741,21.6240029 C25.1632741,28.9500566 31.1222482,34.9100882 38.4467324,34.9100882 C45.7879223,34.9100882 51.7303118,28.9677343 51.7300697,21.6240029 C51.7303118,14.2816033 45.7887696,8.33803863 38.4467324,8.33803863 C34.0864218,8.33803863 30.1610648,10.4267861 27.6859569,13.8308233 L24.3825849,10.5266769 C27.6676775,6.37073421 32.7510547,3.69886649 38.4468535,3.69886649 C48.3287635,3.69886649 56.3683245,11.7400175 56.3683245,21.6238818 C56.3683245,31.5078672 48.3286424,39.5493814 38.4468535,39.5493814 C28.5649434,39.5493814 20.5253824,31.5078672 20.5253824,21.6238818 C20.5253824,18.7689414 21.1973634,16.0682567 22.3895214,13.6702715 L22.3895214,13.6702715 Z M47.9996126,23.0090346 L41.1984529,16.2066509 L35.630247,21.7765634 L30.3004001,16.4456624 C33.6347624,11.2216749 40.9127611,10.4386519 45.2716191,14.7980086 C47.5093364,17.0360475 48.4181027,20.0752713 47.9996126,23.0090346 L47.9996126,23.0090346 Z M35.630247,26.9137367 L41.198695,21.3438242 L46.617639,26.7637188 C44.8762507,29.5210689 41.8560283,31.2776945 38.4468535,31.2776945 C33.1247541,31.2776945 28.7950706,26.9470336 28.7950706,21.6238818 C28.7950706,21.137141 28.8310242,20.656091 28.9013576,20.1832744 L35.630247,26.9137367 Z M8.80536035,54.8631899 L5.13591545,51.1930193 L13.4835636,42.8438414 L17.1528875,46.5138909 L8.80536035,54.8631899 Z" id="Shape" fill="url(#linearGradient-1)"></path>
                <polygon id="Path" fill="url(#linearGradient-2)" points="31 49 60 49 60 53 31 53"></polygon>
                <polygon id="Path" fill="url(#linearGradient-3)" points="20 56 42 56 42 60 20 60"></polygon>
            </g>
        </g>
    </g>
</svg>